<?xml version="1.0" standalone="no"?>
<!DOCTYPE svg PUBLIC "-//W3C//DTD SVG 20010904//EN"
 "http://www.w3.org/TR/2001/REC-SVG-20010904/DTD/svg10.dtd">
<svg version="1.0" xmlns="http://www.w3.org/2000/svg"
 width="1536.000000pt" height="1024.000000pt" viewBox="0 0 1536.000000 1024.000000"
 preserveAspectRatio="xMidYMid meet">

<g transform="translate(0.000000,1024.000000) scale(0.100000,-0.100000)"
fill="#000000" stroke="none">
<path d="M9065 8774 c-5 -2 -101 -15 -212 -29 -399 -50 -579 -102 -761 -221
-243 -159 -378 -411 -342 -640 6 -38 13 -70 15 -72 1 -2 -12 -37 -31 -77 -32
-68 -88 -234 -96 -280 -3 -15 -12 -6 -37 38 -18 32 -55 83 -81 113 -34 38 -46
61 -43 75 9 35 -18 142 -55 219 -27 54 -57 95 -112 150 -139 139 -290 205
-528 231 -95 10 -312 7 -384 -6 -24 -5 -235 -25 -255 -25 -26 0 32 -177 98
-297 121 -219 309 -370 569 -457 196 -65 346 -69 515 -15 85 27 90 27 108 11
33 -29 103 -134 141 -209 l36 -73 -2 -361 -3 -362 -42 -12 c-171 -51 -286
-237 -254 -411 28 -148 113 -250 246 -296 l50 -17 3 -722 2 -722 -53 6 c-29 3
-78 13 -110 22 l-57 16 0 482 0 483 29 25 c55 48 64 136 21 206 -42 69 -155
95 -221 50 -76 -51 -98 -130 -59 -207 19 -37 67 -80 88 -80 7 0 12 -40 14
-100 2 -55 0 -99 -4 -98 -4 2 -85 77 -181 168 l-175 165 -1 192 c-1 185 0 192
20 198 77 25 131 135 109 223 -42 170 -263 213 -357 70 -24 -36 -28 -52 -28
-114 0 -82 13 -108 82 -159 23 -16 44 -39 47 -50 3 -11 6 -106 6 -212 l0 -192
243 -233 244 -232 2 -263 c1 -145 -1 -263 -5 -263 -15 0 -121 64 -189 115
-470 349 -753 909 -704 1396 45 457 311 849 714 1056 89 45 267 113 298 113 7
0 29 5 50 11 l37 10 0 74 c0 88 4 87 -125 56 -411 -99 -743 -349 -954 -715
-221 -386 -250 -859 -79 -1291 145 -368 538 -990 1084 -1715 222 -296 266
-350 282 -350 21 0 42 26 335 416 536 716 946 1381 1061 1724 113 337 111 667
-6 1000 -140 397 -482 738 -883 879 -96 34 -241 71 -279 71 -22 0 -23 -4 -25
-74 l-2 -74 56 -12 c85 -18 243 -73 326 -115 354 -177 615 -510 701 -896 30
-137 33 -397 5 -529 -93 -437 -398 -865 -789 -1106 -40 -24 -76 -44 -80 -44
-4 0 -8 119 -8 264 0 262 0 263 23 287 13 13 123 118 245 234 l222 209 0 213
c0 137 4 213 10 213 27 0 84 50 106 92 61 118 -4 256 -135 288 -158 38 -291
-134 -221 -288 14 -30 34 -51 70 -74 l50 -31 0 -181 0 -181 -158 -146 c-202
-188 -270 -248 -304 -265 l-28 -15 0 -337 0 -338 -56 -18 c-31 -10 -80 -20
-110 -23 l-54 -6 0 722 c0 678 1 722 18 727 120 41 208 111 251 203 23 49 26
69 26 161 0 99 -2 109 -32 165 -47 90 -124 158 -214 188 l-44 15 -3 401 c-2
373 -1 409 19 504 11 56 35 138 52 182 32 80 32 80 67 77 19 -1 89 -3 155 -4
105 -2 132 1 215 26 52 15 128 43 169 62 174 80 371 241 477 389 54 77 128
229 149 310 27 107 46 328 28 338 -5 2 -12 3 -18 1z m-459 -380 c-116 -59
-157 -84 -273 -171 -72 -53 -90 -75 -55 -67 9 2 31 0 47 -4 27 -8 23 -10 -38
-17 -65 -7 -69 -9 -137 -72 -74 -68 -183 -197 -201 -237 -9 -19 -18 -23 -49
-22 -35 1 -37 2 -28 21 43 82 145 209 238 298 87 83 115 117 149 182 23 44 49
87 57 95 14 13 14 12 8 -15 -4 -16 -16 -49 -27 -73 -10 -24 -17 -45 -15 -48 2
-2 28 13 58 33 66 45 182 99 275 129 110 35 108 27 -9 -32z m-1688 -366 c50
-70 89 -105 155 -144 34 -20 89 -55 122 -79 69 -49 188 -172 180 -185 -10 -16
-65 8 -109 47 -172 151 -392 267 -656 345 l-95 28 85 -6 c89 -6 251 -44 301
-69 16 -9 29 -13 29 -11 0 3 -13 27 -30 53 -16 26 -30 51 -30 55 0 19 19 5 48
-34z m841 -1774 c96 -57 100 -199 8 -268 -40 -29 -134 -30 -174 0 -89 66 -99
179 -21 251 12 12 34 27 48 32 32 14 104 6 139 -15z m-877 -178 c28 -21 38
-58 23 -92 -20 -49 -81 -60 -122 -22 -29 27 -30 67 -2 102 23 29 71 35 101 12z
m1671 5 c51 -20 56 -105 8 -130 -81 -44 -161 50 -96 114 26 27 49 31 88 16z
m-1213 -581 c32 -32 25 -66 -17 -89 -17 -8 -29 -9 -43 -1 -25 13 -43 47 -34
63 29 50 61 60 94 27z"/>
<path d="M8820 2340 l0 -370 65 0 65 0 0 30 c0 36 2 37 36 5 70 -65 208 -60
301 11 70 54 109 188 84 289 -27 107 -95 169 -205 188 -74 13 -116 3 -173 -40
l-33 -24 0 140 0 141 -70 0 -70 0 0 -370z m356 19 c40 -24 59 -69 58 -136 0
-59 -20 -94 -74 -130 -40 -28 -72 -29 -126 -4 -88 40 -109 184 -36 254 52 50
114 55 178 16z"/>
<path d="M9484 2685 c-3 -12 -3 -42 -1 -66 l4 -44 69 0 69 0 3 62 c3 60 3 61
-26 68 -16 3 -48 5 -71 4 -33 -2 -43 -7 -47 -24z"/>
<path d="M4621 2685 c-71 -20 -144 -61 -188 -105 -136 -136 -120 -420 30 -534
18 -14 60 -38 92 -53 55 -26 70 -28 180 -28 94 0 131 4 173 19 l52 20 0 57 c0
77 -14 87 -74 53 -126 -70 -309 -26 -367 88 -27 53 -36 144 -19 203 17 61 78
129 138 152 66 25 173 23 231 -6 25 -11 48 -21 52 -21 3 0 16 23 29 51 18 43
19 54 8 64 -45 44 -241 67 -337 40z"/>
<path d="M7460 2330 l0 -360 70 0 70 0 0 155 0 155 175 0 175 0 0 -155 0 -155
75 0 75 0 -2 358 -3 357 -72 3 -73 3 0 -146 0 -145 -170 0 -170 0 -1 28 c0 15
-1 45 -3 67 -1 22 -3 75 -4 118 l-2 77 -70 0 -70 0 0 -360z"/>
<path d="M9858 2599 c-51 -35 -58 -44 -58 -73 0 -37 -12 -46 -61 -46 -28 0
-29 -1 -29 -49 l0 -50 42 -3 41 -3 4 -158 c3 -174 12 -205 63 -232 40 -20 106
-28 154 -18 38 8 38 8 40 60 1 51 1 51 -26 46 -41 -8 -73 4 -86 32 -7 15 -12
77 -12 150 l0 125 66 0 65 0 -3 52 -3 53 -60 0 -60 0 4 78 c4 92 1 93 -81 36z"/>
<path d="M10818 2598 c-54 -37 -58 -43 -58 -79 l0 -39 -45 0 -45 0 0 -50 0
-50 44 0 44 0 4 -164 c3 -181 10 -203 74 -236 27 -14 166 -22 177 -10 3 3 8
28 12 56 l6 51 -49 -5 c-75 -7 -82 9 -82 175 l0 133 60 0 60 0 0 54 0 55 -57
-2 -58 -2 -3 78 c-2 52 -7 77 -15 76 -7 0 -38 -18 -69 -41z"/>
<path d="M5251 2490 c-90 -19 -167 -85 -197 -167 -23 -64 -18 -152 12 -211 50
-100 146 -152 274 -148 170 5 275 109 274 271 0 80 -21 130 -76 182 -66 64
-186 94 -287 73z m121 -110 c127 -36 138 -232 16 -296 -58 -30 -145 -6 -179
50 -56 92 -18 218 75 245 42 12 46 12 88 1z"/>
<path d="M5915 2490 c-101 -21 -153 -60 -195 -143 -67 -134 -17 -288 116 -353
121 -59 271 -38 359 51 127 127 84 355 -81 425 -52 23 -144 32 -199 20z m144
-129 c49 -35 66 -68 66 -131 0 -66 -18 -99 -75 -137 -40 -28 -89 -29 -138 -4
-90 46 -108 183 -33 255 50 48 128 56 180 17z"/>
<path d="M6617 2486 c-26 -7 -61 -26 -77 -41 l-30 -29 0 37 0 37 -65 0 -65 0
0 -365 0 -365 70 0 70 0 0 130 0 129 36 -24 c20 -13 52 -27 71 -31 50 -9 138
3 183 26 173 88 172 395 -2 479 -57 27 -132 34 -191 17z m112 -125 c48 -34 66
-68 66 -129 0 -94 -59 -162 -140 -162 -65 0 -131 58 -135 120 -6 79 0 110 31
145 49 55 122 66 178 26z"/>
<path d="M8360 2489 c-19 -5 -52 -17 -73 -26 -41 -18 -42 -23 -17 -89 8 -19
15 -24 28 -19 61 26 93 34 140 35 46 0 58 -4 83 -29 16 -16 29 -38 29 -49 0
-17 -10 -20 -92 -25 -137 -9 -202 -37 -235 -100 -43 -84 -3 -177 92 -214 65
-25 195 -4 219 36 12 19 26 12 26 -14 0 -24 2 -25 65 -25 l65 0 0 178 c0 97
-5 195 -11 217 -13 47 -48 88 -98 111 -41 20 -167 27 -221 13z m190 -320 c0
-42 -33 -85 -76 -99 -92 -31 -174 40 -111 97 30 28 42 31 120 32 l67 1 0 -31z"/>
<path d="M10270 2489 c-19 -5 -52 -17 -73 -26 -41 -18 -42 -23 -17 -89 8 -19
15 -24 28 -19 68 29 102 36 156 33 64 -5 96 -29 96 -73 0 -21 -5 -22 -94 -29
-51 -3 -109 -11 -127 -18 -81 -27 -122 -80 -121 -156 2 -91 75 -150 187 -151
49 -1 126 26 139 48 12 19 26 12 26 -14 0 -24 2 -25 65 -25 l65 0 0 189 c0
110 -4 202 -11 218 -14 38 -57 83 -97 100 -42 18 -177 25 -222 12z m190 -323
c0 -65 -72 -115 -145 -102 -35 7 -65 38 -65 66 0 20 38 56 65 63 11 3 48 5 83
6 l62 1 0 -34z"/>
<path d="M9490 2228 l0 -258 70 0 70 0 -2 258 -3 257 -67 0 -68 0 0 -257z"/>
<path d="M7039 2298 c0 -2 -2 -27 -5 -55 l-5 -53 151 0 151 0 -3 53 -3 52
-142 3 c-79 1 -143 1 -144 0z"/>
</g>
</svg>
